<?xml version="1.0" encoding="UTF-8" standalone="no"?>
<!-- Created with Inkscape (http://www.inkscape.org/) -->

<svg
   xmlns:dc="http://purl.org/dc/elements/1.1/"
   xmlns:cc="http://creativecommons.org/ns#"
   xmlns:rdf="http://www.w3.org/1999/02/22-rdf-syntax-ns#"
   xmlns:svg="http://www.w3.org/2000/svg"
   xmlns="http://www.w3.org/2000/svg"
   xmlns:sodipodi="http://sodipodi.sourceforge.net/DTD/sodipodi-0.dtd"
   xmlns:inkscape="http://www.inkscape.org/namespaces/inkscape"
   version="1.1"
   id="svg4518"
   xml:space="preserve"
   width="1587.4"
   height="1122.52"
   viewBox="0 0 1587.4 1122.52"
   sodipodi:docname="Tampa MMF Man.svg"
   inkscape:export-filename="D:\YourFaceHere\Tampa MMF Man.png"
   inkscape:export-xdpi="48"
   inkscape:export-ydpi="48"
   inkscape:version="0.92.3 (2405546, 2018-03-11)"><metadata
     id="metadata4524"><rdf:RDF><cc:Work
         rdf:about=""><dc:format>image/svg+xml</dc:format><dc:type
           rdf:resource="http://purl.org/dc/dcmitype/StillImage" /><dc:title></dc:title></cc:Work></rdf:RDF></metadata><defs
     id="defs4522"><clipPath
       clipPathUnits="userSpaceOnUse"
       id="clipPath4534"><path
         d="M 0,841.89 H 1190.551 V 0 H 0 Z"
         id="path4532"
         inkscape:connector-curvature="0" /></clipPath></defs><sodipodi:namedview
     pagecolor="#ffffff"
     bordercolor="#ffffff"
     borderopacity="0"
     objecttolerance="10"
     gridtolerance="10"
     guidetolerance="10"
     inkscape:pageopacity="0"
     inkscape:pageshadow="2"
     inkscape:window-width="1920"
     inkscape:window-height="1017"
     id="namedview4520"
     showgrid="false"
     inkscape:zoom="3.0217724"
     inkscape:cx="931.71837"
     inkscape:cy="598.07455"
     inkscape:window-x="-8"
     inkscape:window-y="-8"
     inkscape:window-maximized="1"
     inkscape:current-layer="g4526"
     inkscape:pagecheckerboard="true" /><g
     id="g4526"
     inkscape:groupmode="layer"
     inkscape:label="Tampa MMF Man"
     transform="matrix(1.3333333,0,0,-1.3333333,0,1122.52)"><g
       clip-path="url(#clipPath4534)"
       id="g4530"
       transform="translate(30.888527,-2.8080479)"><g
         transform="translate(1149.2383,365.371)"
         id="g4536"><path
           inkscape:connector-curvature="0"
           id="path4538"
           style="fill:#ffffff;fill-opacity:1;fill-rule:nonzero;stroke:none"
           d="m 0,0 -6.77,10.157 -24.951,-7.231 -6.704,-13.734 -63.456,-42.284 -8.695,13.048 -11.234,-7.485 2.402,-3.606 -17.894,-10.688 -1.276,1.389 c -4.323,4.703 -9.747,8.112 -15.687,9.86 -3.301,0.97 -7.051,1.571 -11.146,1.785 -6.163,0.316 -12.25,-0.302 -16.27,-0.88 l -2.719,-0.392 0.129,4.901 -8.68,3.118 c -21.634,7.772 -44.805,18.122 -68.866,30.76 l -10.138,5.325 11.409,-0.963 c 13.523,-1.141 18.729,-1.377 37.136,-1.689 15.671,-0.27 39.496,1.244 46.32,1.703 l 0.797,6.092 3.311,-3.198 c 4.786,-4.62 11.204,-6.453 17.166,-4.91 0.509,0.133 1.025,0.292 1.531,0.476 2.572,0.93 4.855,2.442 6.783,4.492 l 1.421,1.51 1.658,-1.243 c 6.425,-4.817 14.101,-6.302 20.517,-3.977 1.602,0.578 3.104,1.383 4.467,2.392 4.392,3.25 7.004,8.307 7.358,14.239 l 0.141,2.383 2.377,-0.21 c 4.164,-0.37 8.256,0.118 11.835,1.414 5.476,1.98 9.715,5.784 11.942,10.711 2.683,5.947 2.172,12.965 -1.405,19.253 -0.9,1.58 -2.047,3.162 -3.413,4.701 l -1.971,2.221 2.635,1.373 c 7.024,3.656 11.469,9.801 12.194,16.857 0.513,4.998 -0.85,9.91 -3.939,14.205 l -0.419,0.582 -0.016,0.717 c -0.07,2.975 -0.251,5.958 -0.54,8.866 -0.668,7.456 -2.025,14.835 -4.037,21.952 l -0.28,0.991 0.548,0.872 c 5.524,8.799 9.646,21.443 12.251,37.581 2.305,14.265 2.643,26.35 2.675,27.681 0.136,5.665 -0.925,8.749 -7.324,10.953 -0.808,0.258 -2,0.699 -3.512,1.258 -2.565,0.949 -5.759,2.13 -8.927,3.095 -3.654,1.115 -6.797,0.056 -9.904,-3.326 -0.446,-0.481 -10.893,-11.815 -20.441,-26.472 -7.687,-11.799 -12.325,-21.899 -14.177,-30.879 l -0.21,-1.013 -0.893,-0.521 c -9.956,-5.81 -24.281,-16.167 -35.979,-32.512 -0.921,-1.289 -1.824,-2.62 -2.759,-4.067 l -0.356,-0.552 -0.594,-0.282 c -4.467,-2.128 -8.296,-4.435 -10.721,-5.997 l -2.067,-1.331 -2.554,4.532 -8.457,-1.023 c -23.146,-2.8 -47.168,-4.22 -71.398,-4.22 -7.952,0 -16.019,0.155 -23.981,0.461 l -9.612,0.37 8.726,4.049 c 40.341,18.72 72.416,41.403 73.762,42.36 l 8.609,6.121 -5.317,11.56 6.235,-3.515 c 7.567,-4.267 16.522,-3.475 22.285,1.966 0.39,0.369 0.763,0.755 1.11,1.15 1.81,2.06 3.081,4.485 3.782,7.209 l 0.517,2.008 2.053,-0.29 c 7.949,-1.124 15.386,1.27 19.893,6.402 1.126,1.282 2.056,2.711 2.762,4.249 2.282,4.963 2.134,10.653 -0.415,16.023 l -1.024,2.156 2.184,0.96 c 3.828,1.684 7.178,4.084 9.688,6.943 3.844,4.374 5.726,9.751 5.301,15.14 -0.512,6.504 -4.343,12.406 -10.509,16.194 -1.544,0.948 -3.313,1.781 -5.255,2.474 l -2.796,0.999 1.647,2.47 c 4.393,6.589 5.325,14.114 2.559,20.646 -4.513,10.663 -17.548,15.604 -30.997,11.748 l -2.322,-0.666 -1.089,4.483 c -2.027,8.217 -3.085,13.099 -1.265,17.862 1.176,3.078 4.531,5.266 9.972,6.502 6.706,1.525 11.667,7.445 12.063,14.397 l 0.994,17.599 c 0.004,0.23 0.904,30.645 15.64,50.99 l 5.743,7.928 c -7.592,3.245 -31.143,12.419 -57.846,13.939 -27.132,1.545 -51.248,-4.897 -59.063,-7.27 l 4.815,-8.544 c 12.398,-21.998 9.775,-52.213 9.746,-52.516 l -1.003,-17.519 c -0.394,-6.95 3.863,-13.395 10.353,-15.671 5.265,-1.846 8.35,-4.4 9.169,-7.591 1.267,-4.939 -0.337,-9.669 -3.282,-17.604 -2.335,-6.295 -5.243,-14.129 -5.897,-23.542 l -0.085,-1.226 -1.062,-0.618 c -0.931,-0.54 -1.764,-1.072 -2.545,-1.626 -2.804,-1.985 -5.601,-4.555 -8.311,-7.639 -5.207,-5.928 -9.147,-12.72 -11.034,-16.242 l -1.39,-2.594 -4.128,3.68 -8.508,-8.709 c -29.817,-30.514 -61.869,-51.131 -83.508,-63.053 l -64.39552,-30.54047 -36.71518,0.81767 c -10.17867,-3.34005 -21.36511,-5.05746 -36.376,-0.217 l -79.3273,13.2018 -14.121,6.501 c -31.367,14.496 -75.557,38.192 -108.092,68.833 l -6.241,5.875 -4.579,-2.091 -1.002,1.999 c -1.241,2.477 -5.802,11.133 -12.389,18.525 -2.732,3.064 -5.546,5.614 -8.365,7.579 -7.423,5.176 -16.725,7.184 -26.189,5.653 l -2.155,-0.35 -2.399,10.72 c -7.156,31.964 -16.637,72.859 -21.652,94.391 l -1.188,5.104 4.576,-2.554 c 2.381,-1.33 4.686,-3.062 6.848,-5.15 1.316,-1.273 2.544,-0.207 2.889,0.149 0.256,0.265 1.462,1.655 0.065,3.003 -0.132,0.127 -0.266,0.247 -0.401,0.367 l -0.316,0.286 c -4.036,3.691 -8.477,6.198 -13.251,7.498 l -1.335,0.364 -0.313,1.345 c -2.083,8.912 -3.425,14.634 -3.595,15.338 -1.361,5.658 -4.316,10.079 -8.321,12.448 l -0.11,0.063 c -3.002,1.702 -6.32,2.157 -9.436,1.304 -7.61,-2.078 -11.41,-10.751 -9.037,-20.623 0.109,-0.452 1.216,-4.926 3.003,-12.111 l 0.459,-1.841 -1.714,-0.813 c -6.122,-2.906 -12.538,-6.912 -19.069,-11.91 -21.652,-16.57 -63.025,-39.53 -96.875,-7.149 -15.825,15.139 -21.019,40.257 -12.63,61.084 7.3,18.12 22.738,28.502 42.37,28.502 h 0.146 c 20.338,-0.053 42.324,-14.624 42.382,-38.072 0.034,-14.058 -10.367,-25.92 -23.678,-27.006 -8.135,-0.656 -15.316,3.565 -18.79,11.031 -3.515,7.553 -2.097,16.155 3.612,21.913 0.541,0.546 0.723,1.108 0.557,1.718 -0.219,0.808 -0.998,1.557 -1.849,1.782 -0.703,0.185 -1.327,-0.008 -1.904,-0.59 -4.743,-4.783 -7.194,-11.496 -6.728,-18.415 0.465,-6.873 3.796,-13.168 9.14,-17.272 10.523,-8.08 25.865,-4.302 34.621,4.019 10.933,10.386 10.673,22.283 8.529,30.436 -4.051,15.409 -18.093,29.374 -33.388,33.206 -14.561,3.65 -29.326,0.797 -41.582,-8.03 -13.107,-9.441 -21.347,-24.233 -22.608,-40.585 -2.467,-32.031 24.216,-61.471 58.269,-64.288 17.421,-1.442 35.087,3.826 51.058,15.238 2.275,1.626 4.704,3.472 7.274,5.426 6.394,4.86 13.641,10.368 21.188,14.472 l 2.632,1.431 0.724,-2.906 c 4.58,-18.371 13.432,-53.785 21.281,-84.561 l 0.856,-3.357 -3.43,0.489 c -11.974,1.714 -22.651,-3.467 -26.558,-12.886 -2.72,-6.552 -1.733,-14.07 2.708,-20.626 l 1.665,-2.459 -2.79,-1.019 c -1.938,-0.707 -3.7,-1.552 -5.238,-2.512 -6.137,-3.831 -9.925,-9.76 -10.391,-16.269 -0.387,-5.391 1.534,-10.754 5.407,-15.101 2.532,-2.84 5.901,-5.217 9.739,-6.873 l 2.191,-0.945 -1.008,-2.163 c -2.511,-5.387 -2.617,-11.079 -0.3,-16.026 0.72,-1.535 1.659,-2.958 2.791,-4.229 4.547,-5.101 12.007,-7.438 19.941,-6.258 l 2.051,0.305 0.531,-2.004 c 0.721,-2.72 2.009,-5.136 3.831,-7.181 0.354,-0.396 0.731,-0.781 1.121,-1.143 5.269,-4.903 13.107,-5.851 20.969,-2.54 l 4.647,1.959 -2.255,-7.029 5.517,-5.503 c 0.742,-0.74 18.591,-18.323 55.632,-36.289 l 14.91,-7.231 -16.322,2.863 c -20.1,3.525 -40.228,8.32 -59.824,14.25 l -12.947,3.918 -1.098,-4.59 -2.635,1.376 c -5.004,2.61 -10.056,4.709 -14.608,6.07 -3.931,1.175 -7.665,1.869 -11.098,2.063 -8.823,0.505 -17.652,-2.544 -24.829,-8.573 l -1.629,-1.368 -29.64,29.687 2.084,2.108 -13.048,14.546 -1.159,24.896 -13.972,13.828 3.571,3.609 -8.146,8.061 -7.034,-7.107 -17.102,16.994 c -0.695,0.687 -1.672,1.066 -2.607,1.059 h -0.018 c -1.004,0 -1.864,-0.367 -2.582,-1.092 -1.428,-1.445 -1.418,-3.782 0.024,-5.208 l 17.103,-16.991 -18.982,-19.183 -17.131,16.952 c -0.696,0.689 -1.615,1.067 -2.591,1.067 h -0.02 c -1.013,-0.002 -1.884,-0.369 -2.599,-1.092 -0.693,-0.702 -1.072,-1.628 -1.067,-2.609 0.004,-0.988 0.392,-1.91 1.09,-2.601 l 17.134,-16.955 -6.999,-7.073 8.146,-8.058 3.571,3.608 13.975,-13.829 24.905,-0.897 14.685,-12.893 1.952,1.973 25.577,-25.616 -6.977,1.066 c -3.512,0.535 -7.095,0.517 -10.657,-0.053 -15.695,-2.519 -26.379,-14.54 -24.321,-27.367 1.124,-7.003 5.909,-12.886 13.128,-16.139 l 2.706,-1.219 -1.838,-2.331 c -1.281,-1.621 -2.337,-3.266 -3.141,-4.887 -3.214,-6.481 -3.328,-13.515 -0.309,-19.302 2.498,-4.791 6.948,-8.348 12.526,-10.016 3.65,-1.09 7.765,-1.346 11.897,-0.741 l 2.363,0.345 0.276,-2.371 c 0.689,-5.902 3.585,-10.803 8.153,-13.8 1.414,-0.927 2.961,-1.646 4.596,-2.135 6.546,-1.953 14.117,-0.036 20.258,5.135 l 1.585,1.335 1.504,-1.425 c 2.043,-1.939 4.407,-3.321 7.029,-4.104 0.508,-0.151 1.03,-0.281 1.552,-0.385 8.303,-1.662 16.473,3.071 21.326,12.338 l 2.739,5.228 2.878,-10.566 6.629,-2.099 c 1.182,-0.373 29.52,-9.159 76.429,-9.908 l 16.401,-0.262 -15.832,-4.293 c -23.504,-6.374 -46.389,-10.28 -68.02,-11.61 l -14.248,-0.876 1.717,-9.757 -2.53,-0.212 c -4.381,-0.366 -10.948,-1.208 -17.36,-3.138 -2.892,-0.869 -5.58,-1.912 -7.99,-3.098 l -1.414,-0.696 -1.167,1.059 c -4.279,3.877 -9.829,6.013 -15.628,6.013 -3.09,0 -6.111,-0.609 -8.979,-1.809 L -948.06,-76.038 c -4.901,-2.052 -8.478,-6.395 -9.569,-11.618 l -0.233,-1.113 -1.022,-0.497 -142.016,-69.108 c -6.279,-2.628 -9.25,-9.875 -6.622,-16.155 l 25.477,-61.229 c 2.773,-6.191 7.014,-6.191 10.421,-6.191 4.088,0 6.925,1.2 8.925,3.779 l 1.008,1.3 1.561,-0.523 c 1.422,-0.477 3.609,-0.971 4.812,-0.971 3.235,0 6.417,1.319 8.73,3.619 l 1.036,1.031 1.378,-0.491 c 1.327,-0.475 2.719,-0.716 4.138,-0.716 3.527,0 6.901,1.522 9.256,4.172 l 1.065,1.199 1.498,-0.573 c 1.399,-0.536 2.878,-0.808 4.396,-0.808 3.384,0 6.664,1.417 8.997,3.887 l 1.095,1.16 1.476,-0.609 c 1.496,-0.617 3.077,-0.932 4.699,-0.932 3.521,0 6.881,1.501 9.219,4.117 l 1.107,1.24 1.529,-0.651 c 1.517,-0.645 3.137,-0.972 4.816,-0.972 3.49,0 6.824,1.465 9.148,4.022 l 0.979,1.078 1.396,-0.416 c 1.135,-0.337 2.316,-0.508 3.509,-0.508 3.378,0 6.522,1.316 8.851,3.702 l 1.083,1.11 1.437,-0.575 c 1.459,-0.584 2.996,-0.88 4.567,-0.88 3.41,0 6.693,1.415 9.008,3.883 l 1.092,1.163 1.476,-0.603 c 1.476,-0.604 3.045,-0.91 4.668,-0.91 3.741,0 7.225,1.639 9.557,4.498 l 1.023,1.253 1.529,-0.527 c 1.285,-0.445 2.634,-0.668 4.011,-0.668 3.401,0 6.697,1.436 9.042,3.942 l 1.037,1.107 1.43,-0.507 c 1.317,-0.468 2.701,-0.704 4.115,-0.704 3.498,0 6.846,1.489 9.186,4.086 l 1.042,1.159 1.466,-0.528 c 1.34,-0.483 2.738,-0.727 4.154,-0.727 5.359,0 10.079,3.417 11.745,8.502 1.571,4.797 3.012,9.078 4.281,12.721 l 0.854,2.45 10.135,-4.866 c 4.104,-1.967 9.01,-2.094 13.215,-0.336 l 74.289,31.091 c 5.736,2.4 10.192,6.89 12.55,12.642 2.157,5.263 2.3,11.13 0.399,16.523 l -0.725,2.059 2.012,0.848 c 6.71,2.824 11.737,9.84 13.118,18.31 l 0.89,5.457 3.268,-4.461 c 0.818,-1.117 1.547,-2.074 2.227,-2.923 l 5.12,-6.394 7.944,2 c 2.65,0.668 65.484,16.706 116.248,48.518 0.397,0.243 0.783,0.479 1.194,0.741 l 4.839,3.076 -1.341,-5.574 c -13.336,-55.418 -34.856,-177.266 -37.789,-193.97 l 19.364,-7.158 -8.663,-1.418 c -25.94,-4.246 -71.943,-17.636 -93.335,-59.705 h 197.766 l -4.704,27.016 7.978,-1.965 22.644,136.169 2.204,-0.269 c 56.4,-6.898 90.692,2.008 91.033,2.098 l 2.152,0.576 0.66,-2.131 c 23.062,-74.541 27.16,-123.398 27.873,-136.646 l 8.041,3.976 -5.018,-28.824 h 197.763 c -26.5,51.993 -91.841,60.066 -104.903,61.166 l -9.314,0.784 22.129,9.414 c -9.27,66.222 -30.782,145.008 -39.355,167.245 l -2.892,7.503 6.442,-4.812 c 43.181,-32.248 87.435,-52.155 89.299,-52.987 l 8.677,-3.876 5.288,6.153 0.555,-5.354 c 0.937,-9.038 7.31,-16.189 15.499,-17.39 0.523,-0.077 1.059,-0.13 1.594,-0.158 2.734,-0.144 5.425,0.363 7.997,1.502 l 1.895,0.84 1.046,-1.791 c 4.046,-6.934 10.535,-11.286 17.357,-11.643 1.697,-0.088 3.396,0.07 5.046,0.469 5.308,1.287 9.681,4.931 12.314,10.259 l 1.058,2.14 2.107,-1.119 c 3.693,-1.959 7.653,-3.1 11.453,-3.298 5.817,-0.301 11.2,1.553 15.166,5.227 4.785,4.436 7.042,11.1 6.192,18.284 -0.213,1.8 -0.657,3.703 -1.317,5.659 l -0.948,2.813 2.958,0.239 c 7.893,0.637 14.375,4.57 17.786,10.791 4.516,8.231 2.654,18.805 -4.741,26.938 l -1.813,1.994 12.97,8.642 -8.694,13.047 63.457,42.284 15.256,0.899 z"
           sodipodi:nodetypes="cccccccccccccccccccccccccccccccccccccccccccccccccccccccccccccccccscccccccccccccccccccccccccccccccccccccccccccccccccccccccccccccccccccccccccccccccccccccccsccccccccccccccccccccccccccccccccccccccccccccccccccccccccccccccccccscccccscccccccccccccccccccccccccccccccccccccccccccccccsccccccccscccscccscccscccscccscccscccscccscccscccscccsccccccccccccccccccccccsccccccccccccccccccccccccccccccccccccccccccccccc"
           inkscape:export-xdpi="48"
           inkscape:export-ydpi="48" /></g><g
         transform="translate(1048.3926,255.7812)"
         id="g4540"><path
           inkscape:connector-curvature="0"
           id="path4542"
           style="fill:#ff0000;fill-opacity:1;fill-rule:nonzero;stroke:none"
           d="m 0,0 c -3.69,-6.729 -14.171,-8.075 -23.409,-3.009 -1.191,0.654 -2.298,1.383 -3.323,2.169 1.114,3.098 1.878,6.486 2.215,10.087 0.486,5.196 0.436,10.183 -0.117,14.889 4.41,0.781 9.671,-0.081 14.589,-2.779 C -0.807,16.291 3.69,6.729 0,0 m -22.846,-35.443 c -5.426,-5.031 -15.426,-3.067 -22.333,4.385 -3.386,3.655 -5.39,7.948 -5.925,11.97 0.397,-0.047 0.791,-0.103 1.191,-0.125 6.686,-0.349 12.838,2.776 17.434,8.216 1.109,-0.772 2.271,-1.501 3.497,-2.174 1.861,-1.02 3.795,-1.873 5.765,-2.556 4.796,-7.002 5.126,-15.311 0.371,-19.716 m -37.979,-10.999 c -5.946,-1.442 -12.371,4.008 -14.35,12.173 -1.978,8.165 1.237,15.952 7.184,17.393 1.717,0.416 3.47,0.242 5.147,-0.39 0.011,-0.97 0.073,-1.954 0.191,-2.946 0.788,-6.645 3.945,-13.254 8.888,-18.626 -1.15,-3.867 -3.654,-6.778 -7.06,-7.604 m -27.147,61.518 c 4.319,14.745 5.833,28.4 6.355,35.345 5.695,0.961 16.856,2.266 25.582,-0.301 12.241,-3.6 22.124,-16.844 19.978,-39.795 -2.145,-22.951 -26.85,-29.4 -24.526,13.906 0,0 -6.741,-6.709 -10.332,-11.725 z m 2.704,-33.702 c -1.977,-4.788 -2.548,-10.318 -1.677,-15.811 -1.611,-0.921 -3.431,-1.333 -5.285,-1.061 -5.083,0.745 -8.477,6.299 -7.582,12.403 0.895,6.105 5.742,10.45 10.824,9.704 1.938,-0.284 3.629,-1.271 4.932,-2.718 -0.444,-0.805 -0.85,-1.644 -1.212,-2.517 m -33.127,6.062 c 0,0 -94.167,42.058 -140.748,102.795 l -48.846,138.76 c 0,0 73.252,22.812 137.049,88.105 0,0 22.712,-20.239 41.516,-61.116 0,0 -72.258,-51.374 -136.062,-62.932 0,0 53.58,-10.399 126.863,-6.616 0,0 25.722,1.337 40.658,3.288 0,0 5.789,-10.278 9.238,-28.25 2.339,-12.29 3.579,-28.151 1.138,-46.768 0,0 -92.555,-7.719 -157.663,19.876 0,0 70.319,-50.82 148.837,-79.029 0,0 -1.165,-43.884 -21.98,-68.113 m -221.876,241.187 13.633,-58.207 c -46.397,6.939 -105.259,-0.845 -105.259,-0.845 l 9.076,59.398 21.768,4.044 h -0.002 c -21.565,2.751 -34.825,7.676 -39.347,9.43 -0.017,0.007 -0.034,0.012 -0.05,0.018 v 0.002 c -42.233,16.402 -71.28,50.579 -71.28,90.091 0,55.477 57.253,100.449 127.879,100.449 70.626,0 127.879,-44.972 127.879,-100.449 0,-48.893 -44.474,-89.62 -103.377,-98.599 -0.189,-0.029 -3.73,-0.537 -5.326,-0.725 4.394,-0.75 16.254,-2.815 24.406,-4.607 M -483.314,96.757 C -527.41,42.93 -637.022,15.335 -637.022,15.335 c -19.313,24.119 -26.709,66.178 -26.709,66.178 92.481,5.687 172.442,53.575 172.442,53.575 -106.544,-25.347 -178.356,-2.621 -178.356,-2.621 -10.209,37.516 -1.716,73.054 -1.716,73.054 105.715,-31.99 185.961,-19.994 185.961,-19.994 -116.302,16.4 -167.66,67.63 -167.66,67.63 15.068,46.941 41.725,59.11 41.725,59.11 59.69,-56.212 154.918,-89.124 154.918,-89.124 -14.301,-92.601 -26.897,-126.386 -26.897,-126.386 m -186.666,-97.198 -7.626,18.219 c 0.276,1.721 0.447,3.53 0.493,5.44 l 2.233,0.917 7.247,2.975 c 3.221,-2.654 5.39,-7.476 5.403,-13.007 0.015,-6.827 -3.246,-12.608 -7.75,-14.544 m -13.469,38.522 c -1.263,0.907 -2.542,1.78 -3.721,2.563 -2.752,1.825 -4.936,3.144 -4.936,3.144 12.556,-41.511 -12.974,-41.121 -20.516,-19.339 -7.541,21.783 -1.091,36.996 9.943,43.405 1.81,1.051 3.799,1.926 5.852,2.667 0.017,0.006 0.033,0.013 0.049,0.019 0.808,0.29 1.623,0.565 2.445,0.813 0.023,0.006 0.046,0.016 0.07,0.023 0.104,0.031 0.209,0.057 0.313,0.087 0.584,0.172 1.168,0.334 1.753,0.486 0.21,0.055 0.419,0.109 0.629,0.161 0.567,0.141 1.13,0.275 1.692,0.399 0.144,0.032 0.287,0.066 0.429,0.097 0.692,0.149 1.375,0.285 2.05,0.411 0.17,0.031 0.336,0.059 0.505,0.089 0.523,0.093 1.038,0.181 1.545,0.261 0.192,0.03 0.381,0.061 0.57,0.089 0.573,0.088 1.135,0.168 1.682,0.239 0.063,0.009 0.129,0.019 0.192,0.028 0.627,0.081 1.227,0.15 1.808,0.214 0.116,0.012 0.226,0.023 0.342,0.035 0.481,0.05 0.941,0.095 1.382,0.135 0.095,0.008 0.188,0.017 0.28,0.025 0.511,0.045 1.003,0.084 1.449,0.115 -0.008,0.04 -0.015,0.074 -0.024,0.113 1.448,-6.771 4.703,-20.191 10.323,-34.601 l -11.939,-4.903 c -1.221,1.049 -2.68,2.158 -4.167,3.225 m -10.472,-51.658 c -4.937,-8.882 -14.182,-13.167 -20.65,-9.571 -5.665,3.148 -7.321,11.297 -4.328,19.24 1.752,1.131 3.428,2.419 4.993,3.853 1.03,0.945 1.986,1.93 2.879,2.943 5.758,-4.192 12.476,-5.763 18.888,-3.834 0.384,0.115 0.753,0.264 1.126,0.404 0.438,-4.034 -0.487,-8.681 -2.908,-13.035 m -51.268,19.424 c -5.184,5.657 -3.09,16.014 4.679,23.133 4.135,3.789 9.039,5.877 13.509,6.166 0.582,-4.701 1.719,-9.556 3.427,-14.489 1.184,-3.418 2.731,-6.526 4.55,-9.27 -0.809,-1.008 -1.711,-1.98 -2.712,-2.897 -7.768,-7.118 -18.269,-8.302 -23.453,-2.643 m 1.126,-30.501 c -0.845,-0.354 -1.726,-0.533 -2.622,-0.533 -2.755,0 -5.223,1.642 -6.287,4.184 l -17.101,40.863 c -0.702,1.677 -0.709,3.528 -0.02,5.21 0.69,1.683 1.994,2.996 3.671,3.699 l 16.001,6.696 c -10.827,-11.533 -12.413,-27.519 -3.313,-37.449 5.381,-5.873 13.367,-8.349 21.92,-6.974 -0.183,-2.121 -0.178,-4.231 0.075,-6.29 0.166,-1.351 0.433,-2.658 0.781,-3.922 z m 60.046,361.176 c 16.564,16.032 33.078,16.606 43.545,9.308 9.475,-6.607 16.541,-20.191 17.795,-22.706 -5.716,-3.648 -15.219,-11.064 -24.788,-24.474 l -13.045,12.041 c 1.668,5.94 2.684,15.396 2.684,15.396 -32.332,-28.904 -42.755,-5.596 -26.191,10.435 m 13.809,-70.646 c -4.203,-4.517 -10.659,-5.343 -14.419,-1.844 -1.373,1.277 -2.19,2.954 -2.478,4.787 4.83,2.757 8.786,6.661 11.285,11.2 0.455,0.828 0.856,1.669 1.206,2.519 1.944,-0.111 3.772,-0.812 5.206,-2.147 3.762,-3.499 3.403,-9.997 -0.8,-14.515 m -24.129,12.231 c -7.608,-3.563 -15.879,-1.96 -18.475,3.58 -1.486,3.174 -0.781,6.949 1.516,10.267 7.284,-0.497 14.415,1.173 20.092,4.716 0.848,0.529 1.654,1.095 2.418,1.694 1.542,-0.913 2.775,-2.173 3.524,-3.772 2.595,-5.54 -1.468,-12.921 -9.075,-16.485 m -33.653,40.092 c 0.464,6.465 7.153,11.405 15.615,12.045 1.766,-1.111 3.641,-2.087 5.602,-2.9 1.291,-0.536 2.586,-0.986 3.882,-1.368 -1.369,-6.99 0.042,-13.743 4.497,-18.742 0.267,-0.298 0.558,-0.57 0.842,-0.85 -3.472,-2.1 -8.075,-3.222 -13.045,-2.865 -10.134,0.726 -17.922,7.298 -17.393,14.68 m 13.362,39.995 c 2.941,7.088 13.214,9.561 22.946,5.523 5.181,-2.149 9.144,-5.714 11.294,-9.644 -4.018,-2.512 -7.939,-5.593 -11.689,-9.222 -2.6,-2.516 -4.764,-5.231 -6.484,-8.038 -1.255,0.308 -2.517,0.716 -3.771,1.236 -9.731,4.038 -15.237,13.057 -12.296,20.145 m 0.9,126.223 c -1.459,6.071 0.271,11.242 4.116,12.291 0.371,0.102 0.746,0.15 1.122,0.163 0.055,0.002 0.111,0.011 0.167,0.011 0.254,0 0.509,-0.023 0.763,-0.062 -0.279,0.043 -0.559,0.051 -0.838,0.046 0.983,0.015 1.977,-0.252 2.952,-0.804 2.336,-1.382 4.195,-4.329 5.098,-8.084 0.109,-0.454 1.159,-4.921 2.84,-12.11 -0.965,-0.003 -1.953,-0.042 -2.968,-0.121 l -0.002,0.004 c -0.506,1.996 -2.553,3.215 -4.549,2.709 -1.996,-0.506 -3.215,-2.554 -2.709,-4.549 l 1.84,-7.259 c 0.507,-1.996 2.554,-3.215 4.55,-2.709 1.64,0.416 2.739,1.876 2.803,3.491 1.039,0.037 2.047,0.031 3.011,-0.032 5.755,-24.68 15.515,-66.775 22.834,-99.463 0.505,-2.255 0.994,-4.44 1.475,-6.592 -0.865,1.347 -1.846,2.662 -2.969,3.923 l -10e-4,0.001 c -3.163,3.548 -7.209,6.486 -11.756,8.575 -12.025,47.026 -27.338,108.741 -27.779,110.571 M -141.33,349.943 c 10.415,7.373 26.933,6.918 43.611,-8.994 16.678,-15.912 6.423,-39.295 -26.116,-10.624 0,0 1.085,-9.448 2.795,-15.375 l -16.052,-15.033 c -9.909,14.345 -18.444,23.242 -22.036,26.741 l -0.03,0.044 c 0,0 7.415,15.868 17.828,23.241 m 0.929,67.146 c -3.274,1.148 -5.334,4.393 -5.137,7.856 l 0.447,7.854 65.374,-3.721 -0.447,-7.854 c -0.197,-3.462 -2.612,-6.453 -5.995,-7.222 -6.025,-1.369 -12.907,-4.448 -15.537,-11.332 -3.217,-8.419 -0.35,-16.691 1.91,-26.392 -3.014,-1.852 -5.718,-4.096 -7.963,-6.652 l -0.001,-10e-4 c -1.696,-1.931 -3.092,-3.977 -4.187,-6.088 -2.706,0.96 -5.424,1.664 -8.137,2.09 -4.976,0.783 -9.905,0.64 -14.574,-0.37 2.602,15.698 11.581,26.41 8.398,38.81 -1.831,7.139 -8.321,10.978 -14.151,13.022 m -14.874,82.169 c 0,0 9.813,2.957 26.068,3.961 2.08,-7.97 4.91,-20.559 5.08,-30.632 -0.117,2.648 2.349,17.805 2.667,30.931 19.462,0.248 25.172,-0.951 36.587,-3.161 l -1.564,-17.713 4.231,17.176 c 12.786,-2.698 20.149,-5.868 20.149,-5.868 -16.476,-22.746 -17.19,-56.626 -17.19,-56.626 l -65.375,3.72 c 0,0 3.136,33.744 -10.653,58.212 m 65.025,-131.06 c 9.703,4.108 19.994,1.709 22.986,-5.358 2.992,-7.067 -2.449,-16.125 -12.152,-20.233 -1.249,-0.529 -2.509,-0.946 -3.761,-1.263 -1.741,2.795 -3.925,5.494 -6.542,7.991 -3.776,3.603 -7.719,6.655 -11.755,9.139 2.121,3.944 6.059,7.538 11.224,9.724 m 36.634,-45.256 c 0.582,-7.378 -7.157,-14.006 -17.286,-14.805 -4.967,-0.392 -9.578,0.696 -13.066,2.771 0.282,0.282 0.572,0.556 0.836,0.857 4.419,5.03 5.781,11.794 4.361,18.774 1.294,0.391 2.586,0.85 3.874,1.395 1.956,0.828 3.823,1.817 5.58,2.94 8.467,-0.579 15.192,-5.471 15.701,-11.932 M -68.53,286.323 c -2.556,-5.56 -10.816,-7.222 -18.449,-3.713 -7.633,3.509 -11.749,10.86 -9.194,16.419 0.738,1.604 1.961,2.872 3.497,3.797 0.769,-0.594 1.579,-1.154 2.43,-1.677 5.703,-3.502 12.846,-5.121 20.126,-4.572 2.32,-3.301 3.053,-7.07 1.59,-10.254 m -28.057,-17.858 c -3.736,-3.526 -10.198,-2.747 -14.433,1.741 -4.235,4.487 -4.64,10.982 -0.905,14.508 1.425,1.346 3.248,2.059 5.192,2.185 0.356,-0.848 0.762,-1.686 1.224,-2.511 2.53,-4.52 6.516,-8.397 11.365,-11.118 -0.276,-1.835 -1.081,-3.519 -2.443,-4.805 m 39.35,-65.866 c 12.677,1.442 26.931,-6.917 33.878,-28.897 6.946,-21.98 -13.308,-37.526 -28.003,3.277 0,0 -3.603,-8.802 -4.961,-14.82 l -16.548,-4.221 c -2.386,16.065 -6.73,27.805 -9.483,34.062 4.127,2.746 15.078,9.457 25.117,10.599 m 30.702,35.844 c 0.479,8.663 5.003,19.609 13.538,32.71 8.989,13.799 19.073,24.8 19.499,25.26 0.491,0.535 1.18,0.798 1.865,0.766 0.006,-10e-4 0.011,0.001 0.017,0.001 0.016,-0.001 0.033,-0.009 0.051,-0.01 -0.014,10e-4 -0.029,0.003 -0.042,0.005 0.391,-0.022 0.782,-0.139 1.133,-0.361 0.974,-0.617 1.368,-1.839 0.936,-2.907 L -3.6,259.07 c -0.252,-0.625 -0.754,-1.115 -1.388,-1.347 -1.425,-0.521 -2.516,-1.565 -3.069,-2.935 -1.081,-2.678 0.218,-5.739 2.897,-6.821 2.676,-1.078 5.734,0.223 6.815,2.901 0.554,1.37 0.492,2.877 -0.171,4.242 -0.294,0.607 -0.318,1.308 -0.066,1.932 l 14.063,34.84 c 0.43,1.068 1.564,1.673 2.692,1.442 1.127,-0.234 1.928,-1.24 1.9,-2.39 -0.048,-1.948 -1.281,-46.987 -16.482,-64.628 1.767,-5.153 4.104,-13.479 5.188,-23.769 -3.405,1.518 -7.202,2.553 -11.278,2.972 -3.167,0.325 -6.333,0.235 -9.39,-0.232 -0.932,5.702 -2.289,10.589 -3.551,14.342 -0.349,0.107 -0.679,0.224 -1.001,0.354 -0.004,0.002 -0.01,0.003 -0.013,0.004 l -0.012,0.003 c -0.005,0.004 -0.013,0.006 -0.018,0.01 -0.329,0.134 -0.652,0.284 -0.968,0.442 -5.028,-2.61 -11.197,-6.428 -17.374,-11.745 -7.06,4.309 -15.068,6.236 -23.023,5.489 11.333,12.763 23.776,20.411 31.314,24.267 m 40.41,-60.235 c -0.784,-7.635 -9.916,-12.95 -20.397,-11.874 -1.35,0.139 -2.655,0.38 -3.905,0.706 -0.178,3.288 -0.792,6.705 -1.882,10.154 -1.572,4.977 -3.556,9.552 -5.895,13.673 3.759,2.434 8.941,3.685 14.52,3.112 10.482,-1.077 18.343,-8.138 17.559,-15.771 M 6.607,136.67 c -3.044,-6.744 -13.02,-8.823 -22.282,-4.642 -4.541,2.05 -8.056,5.227 -10.112,8.725 0.383,0.11 0.769,0.212 1.145,0.348 6.296,2.278 10.749,7.547 12.87,14.347 1.321,-0.28 2.675,-0.501 4.065,-0.643 2.112,-0.217 4.226,-0.25 6.307,-0.113 7.14,-4.587 10.674,-12.115 8.007,-18.022 m -30.715,-24.899 c -4.919,-3.64 -12.956,-1.116 -17.955,5.637 -4.997,6.752 -5.061,15.178 -0.143,18.818 1.42,1.049 3.102,1.571 4.893,1.641 0.388,-0.89 0.829,-1.771 1.322,-2.639 3.309,-5.818 8.788,-10.678 15.431,-13.706 0.443,-4.01 -0.732,-7.667 -3.548,-9.751 m -33.19,-2.126 c -4.973,-1.29 -10.259,2.506 -11.807,8.479 -1.549,5.973 1.226,11.86 6.199,13.149 1.896,0.492 3.838,0.24 5.601,-0.587 -0.096,-0.915 -0.145,-1.845 -0.137,-2.79 0.04,-5.18 1.663,-10.498 4.6,-15.219 -1.126,-1.475 -2.642,-2.563 -4.456,-3.032 M -791.196,-79.624 c -1.009,-3.079 -4.965,-3.926 -7.148,-1.531 l -0.749,0.821 c -2.065,2.264 -5.777,1.651 -7.005,-1.156 l -1.094,-2.501 c -1.173,-2.683 -4.652,-3.393 -6.782,-1.383 l -1.32,1.246 c -2.315,2.183 -6.121,1.127 -6.979,-1.936 l -0.34,-1.21 c -0.866,-3.088 -4.717,-4.129 -7.02,-1.898 l -1.276,1.236 c -2.179,2.112 -5.808,1.311 -6.896,-1.521 l -1.056,-2.749 c -1.108,-2.885 -4.834,-3.648 -6.988,-1.431 l -1.401,1.443 c -2.124,2.188 -5.795,1.479 -6.952,-1.343 l -0.939,-2.289 c -1.106,-2.697 -4.544,-3.495 -6.725,-1.561 l -1.864,1.655 c -2.303,2.043 -5.949,1.021 -6.854,-1.922 l -0.359,-1.167 c -0.992,-3.226 -5.173,-4.05 -7.315,-1.444 -2.138,2.602 -6.309,1.787 -7.311,-1.426 l -0.412,-1.323 c -0.959,-3.073 -4.861,-3.993 -7.092,-1.673 l -1.75,1.821 c -2.205,2.294 -6.057,1.426 -7.066,-1.592 l -0.792,-2.37 c -0.97,-2.903 -4.606,-3.849 -6.867,-1.785 l -1.928,1.759 c -2.235,2.041 -5.828,1.143 -6.842,-1.709 l -0.656,-1.848 c -1.032,-2.903 -4.72,-3.767 -6.933,-1.622 l -1.543,1.494 c -2.207,2.139 -5.886,1.285 -6.926,-1.607 l -0.819,-2.271 c -1.106,-3.073 -5.129,-3.788 -7.227,-1.284 l -0.353,0.422 c -2.091,2.496 -6.098,1.796 -7.219,-1.26 l -0.493,-1.346 c -1.034,-2.818 -4.59,-3.691 -6.813,-1.679 -0.021,0.019 -0.031,0.029 -0.052,0.049 l -1.877,1.759 c -2.256,2.113 -5.942,1.176 -6.913,-1.76 l -0.604,-1.825 c -0.98,-2.964 -5.568,-4.484 -6.963,-1.711 l -25.483,61.244 c -0.903,2.158 0.113,4.637 2.27,5.539 l 148.533,71.832 20.914,-49.972 0.556,-0.267 c 4.13,-1.883 30.812,-14.081 38.546,-18.495 l 5.564,-2.67 c -2.303,-5.49 -6.016,-16.544 -8.387,-23.783 m -32.206,102.38 c 3.067,1.284 6.595,-0.162 7.879,-3.23 1.283,-3.067 -0.162,-6.594 -3.23,-7.879 -3.067,-1.283 -6.595,0.163 -7.878,3.23 -1.285,3.068 0.162,6.596 3.229,7.879 m 13.657,-32.631 c 3.067,1.284 6.594,-0.162 7.878,-3.229 1.284,-3.068 -0.162,-6.595 -3.23,-7.879 -3.067,-1.284 -6.594,0.162 -7.879,3.229 -1.283,3.068 0.163,6.596 3.231,7.879 m 120.014,182.947 -19.466,3.805 c -1.697,5.932 -5.794,14.514 -5.794,14.514 -12.357,-41.571 -33.46,-27.197 -27.771,-4.859 5.689,22.339 19.445,31.492 32.185,30.772 9.276,-0.525 19.587,-5.708 24.513,-8.489 -0.464,-2.004 -3.568,-16.166 -3.667,-35.743 m -4.207,-39.433 c -1.208,-6.052 -6.27,-10.142 -11.308,-9.137 -1.837,0.367 -3.414,1.366 -4.621,2.775 2.665,4.881 3.984,10.282 3.73,15.455 -0.046,0.945 -0.147,1.872 -0.295,2.778 1.714,0.926 3.637,1.288 5.559,0.904 5.038,-1.005 8.142,-6.725 6.935,-12.775 m -26.959,-2.249 c -4.607,-7.026 -12.489,-10.001 -17.605,-6.647 -2.931,1.922 -4.311,5.505 -4.097,9.535 6.461,3.399 11.655,8.563 14.629,14.558 0.444,0.894 0.834,1.8 1.17,2.711 1.792,0.031 3.502,-0.395 4.979,-1.362 5.116,-3.355 5.53,-11.77 0.924,-18.795 m -27.175,13.1 c -9.009,-4.7 -19.086,-3.19 -22.509,3.371 -2.998,5.746 0.104,13.462 6.973,18.447 2.086,-0.019 4.193,0.133 6.29,0.47 1.38,0.222 2.719,0.519 4.022,0.873 2.503,-6.669 7.248,-11.677 13.662,-13.594 0.384,-0.116 0.775,-0.195 1.163,-0.284 -1.854,-3.608 -5.183,-6.979 -9.601,-9.283 m -32.121,44.429 c -1.215,7.577 6.233,15.073 16.636,16.742 5.538,0.889 10.783,-0.066 14.674,-2.284 -2.101,-4.246 -3.823,-8.926 -5.111,-13.984 -0.893,-3.506 -1.311,-6.953 -1.302,-10.245 -1.23,-0.396 -2.518,-0.711 -3.858,-0.926 -10.404,-1.669 -19.823,3.12 -21.039,10.697 m 875.256,-66.473 -27.57,-7.991 -6.88,-14.092 -61.005,-40.65 -8.694,13.048 -15.093,-10.057 2.338,-3.508 -14.184,-8.471 c -4.592,4.995 -10.33,8.63 -16.74,10.514 -3.472,1.022 -7.402,1.653 -11.679,1.876 -6.208,0.324 -12.287,-0.261 -16.722,-0.9 l 0.102,3.829 -10.257,3.685 c -24.212,8.699 -47.745,19.691 -68.573,30.631 13.29,-1.121 18.316,-1.376 37.29,-1.697 18.683,-0.317 48.412,1.84 48.412,1.84 l 0.446,3.408 c 5.161,-4.982 12.346,-7.304 19.356,-5.486 0.586,0.152 1.169,0.333 1.737,0.538 3.007,1.088 5.59,2.857 7.685,5.085 6.888,-5.163 15.388,-6.947 22.697,-4.303 1.812,0.656 3.514,1.568 5.057,2.709 4.938,3.655 7.901,9.409 8.292,15.966 4.461,-0.396 8.855,0.105 12.829,1.544 6.07,2.196 10.78,6.435 13.264,11.937 2.994,6.63 2.446,14.413 -1.502,21.354 -1.025,1.802 -2.28,3.499 -3.692,5.092 7.683,4 12.614,10.751 13.428,18.676 0.589,5.742 -1.06,11.206 -4.362,15.795 -0.071,2.999 -0.251,6.015 -0.551,9.04 -0.792,8.85 -2.454,16.484 -4.113,22.354 5.693,9.069 9.915,21.959 12.578,38.444 2.314,14.326 2.67,26.639 2.703,27.996 0.162,6.757 -1.536,10.668 -8.887,13.2 -2.21,0.709 -7.432,2.829 -12.516,4.378 -5.491,1.674 -9.455,-0.891 -12.288,-3.974 -0.423,-0.457 -11.048,-11.995 -20.677,-26.777 -7.811,-11.988 -12.596,-22.423 -14.505,-31.675 -10.083,-5.884 -24.733,-16.45 -36.696,-33.165 -0.979,-1.368 -1.915,-2.757 -2.821,-4.158 -4.546,-2.164 -8.428,-4.497 -10.978,-6.14 l -2.107,3.74 -9.996,-1.209 c -23.053,-2.79 -46.982,-4.204 -71.119,-4.204 -8.396,0 -16.383,0.171 -23.891,0.46 40.326,18.712 72.125,41.148 74.129,42.572 l 10.174,7.234 -3.128,6.802 c 8.203,-4.625 18.334,-4.004 25.014,2.301 0.44,0.414 0.863,0.854 1.262,1.307 2.111,2.403 3.521,5.198 4.284,8.16 8.523,-1.205 16.83,1.327 21.961,7.166 1.271,1.449 2.323,3.068 3.125,4.811 2.566,5.583 2.39,12.053 -0.428,17.986 4.1,1.804 7.707,4.36 10.497,7.535 4.26,4.849 6.344,10.834 5.869,16.852 -0.572,7.252 -4.802,13.808 -11.606,17.986 -1.767,1.086 -3.685,1.967 -5.688,2.683 4.804,7.207 5.872,15.499 2.765,22.836 -5.056,11.943 -19.336,17.211 -33.771,13.072 -0.176,0.727 -0.352,1.45 -0.523,2.143 -1.915,7.769 -2.922,12.365 -1.348,16.481 1.098,2.877 5.13,4.344 8.319,5.069 7.709,1.752 13.409,8.547 13.864,16.524 l 0.994,17.601 c 0.007,0.282 0.851,29.948 15.202,49.761 l 7.421,10.245 c 0,0 -28.016,13.404 -61.269,15.296 -33.761,1.922 -62.61,-8.244 -62.61,-8.244 l 6.211,-11.022 c 12.092,-21.457 9.486,-50.869 9.458,-51.164 l -1.008,-17.6 c -0.454,-7.978 4.438,-15.375 11.898,-17.991 3.087,-1.082 6.926,-2.998 7.691,-5.981 1.095,-4.267 -0.426,-8.719 -3.21,-16.221 -2.403,-6.477 -5.363,-14.512 -6.035,-24.187 -0.928,-0.539 -1.839,-1.115 -2.72,-1.739 -2.954,-2.091 -5.885,-4.783 -8.712,-8.001 -5.284,-6.016 -9.268,-12.815 -11.336,-16.678 l -3.586,3.195 -10.057,-10.292 c -29.132,-29.815 -60.367,-50.191 -82.967,-62.644 5.448,6.325 10.121,13.082 13.969,20.23 8.048,14.945 12.128,30.873 12.128,47.342 0,16.469 -4.08,32.397 -12.128,47.342 -7.58,14.079 -18.338,26.648 -31.973,37.358 -27.203,21.367 -63.129,33.135 -101.164,33.135 -38.034,0 -73.962,-11.768 -101.163,-33.135 -13.636,-10.71 -24.393,-23.279 -31.974,-37.358 -8.047,-14.945 -12.128,-30.873 -12.128,-47.342 0,-16.469 4.081,-32.397 12.128,-47.342 6.062,-11.256 14.159,-21.545 24.131,-30.693 -0.245,0.112 -0.467,0.211 -0.695,0.313 -31.812,14.701 -75.343,38.167 -107.451,68.404 l -7.373,6.944 -3.964,-1.809 c -1.25,2.494 -5.938,11.405 -12.732,19.027 -2.85,3.198 -5.8,5.869 -8.769,7.939 -7.925,5.526 -17.824,7.667 -27.886,6.04 -0.622,2.782 -1.262,5.643 -1.921,8.588 -6.79,30.327 -15.785,69.2 -21.656,94.41 2.161,-1.206 4.287,-2.785 6.368,-4.792 4.158,-4.017 10.313,2.491 6.174,6.487 -0.251,0.242 -0.507,0.459 -0.759,0.691 -0.019,0.017 -0.037,0.033 -0.056,0.051 -4.462,4.081 -9.23,6.636 -14.155,7.978 -2.083,8.92 -3.428,14.647 -3.598,15.352 -1.509,6.275 -4.845,11.211 -9.395,13.901 l -0.072,0.043 -0.075,0.042 c -2.371,1.344 -4.877,2.026 -7.449,2.026 -1.262,0 -2.521,-0.17 -3.74,-0.504 -8.861,-2.419 -13.357,-12.261 -10.68,-23.4 0.111,-0.458 1.219,-4.937 3.008,-12.128 -6.983,-3.315 -13.626,-7.681 -19.484,-12.164 -27.705,-21.204 -64.493,-35.412 -93.864,-7.315 -29.275,28.005 -17.096,85.712 28.278,85.593 19.804,-0.052 40.017,-14.532 40.07,-35.76 0.029,-12.117 -8.929,-23.661 -21.551,-24.69 -15.786,-1.287 -24.076,18.175 -13.341,29.002 4.072,4.107 -2.441,10.257 -6.488,6.174 -10.804,-10.897 -9.819,-29.586 2.646,-39.157 11.357,-8.723 27.817,-5.146 37.63,4.176 24.497,23.271 1.605,60.681 -25.892,67.571 -33.515,8.399 -64.481,-17.152 -67.065,-50.685 -2.685,-34.85 26.756,-63.994 60.389,-66.777 19.15,-1.584 37.135,4.615 52.596,15.663 8.019,5.73 17.85,14.108 28.222,19.747 5.288,-21.216 13.772,-55.115 21.284,-84.571 -12.773,1.824 -24.593,-3.602 -29.028,-14.293 -3.054,-7.359 -1.927,-15.642 2.93,-22.815 -2,-0.73 -3.911,-1.626 -5.67,-2.724 -6.774,-4.227 -10.957,-10.813 -11.477,-18.069 -0.431,-6.022 1.696,-11.991 5.99,-16.809 2.812,-3.155 6.438,-5.686 10.551,-7.46 -2.775,-5.953 -2.905,-12.425 -0.299,-17.988 0.815,-1.738 1.878,-3.349 3.161,-4.788 5.171,-5.803 13.497,-8.275 22.011,-7.009 0.783,-2.956 2.214,-5.741 4.342,-8.129 0.402,-0.45 0.83,-0.887 1.272,-1.299 6.026,-5.606 14.796,-6.624 23.449,-2.978 l -1.148,-3.575 6.52,-6.503 c 1.271,-1.268 19.169,-18.744 56.257,-36.733 -18.489,3.243 -38.496,7.813 -59.553,14.185 l -15.301,4.631 -0.978,-4.091 c -3.928,2.049 -9.277,4.521 -15.016,6.237 v 0 c -4.104,1.226 -8.017,1.952 -11.631,2.157 -9.458,0.535 -18.821,-2.703 -26.452,-9.113 l -26.51,26.551 2.001,2.023 -13.955,15.558 -1.161,24.974 -12.969,12.833 3.571,3.609 -11.441,11.321 -7.03,-7.103 -15.456,15.357 c -1.14,1.126 -2.649,1.742 -4.252,1.734 -1.643,0.007 -3.109,-0.641 -4.236,-1.781 -2.327,-2.354 -2.307,-6.162 0.041,-8.485 l 15.459,-15.358 -15.724,-15.891 -15.484,15.322 c -1.139,1.129 -2.648,1.745 -4.252,1.738 -1.649,-0.004 -3.111,-0.642 -4.237,-1.782 -1.128,-1.14 -1.745,-2.65 -1.737,-4.252 0.007,-1.605 0.64,-3.11 1.78,-4.236 l 15.485,-15.323 -6.999,-7.073 11.44,-11.32 3.572,3.609 12.969,-12.835 24.985,-0.9 15.706,-13.789 1.847,1.867 18.942,-18.97 c -3.691,0.564 -7.549,0.557 -11.373,-0.056 -16.98,-2.725 -28.507,-15.912 -26.243,-30.022 1.261,-7.866 6.567,-14.327 14.466,-17.885 -1.32,-1.671 -2.477,-3.436 -3.398,-5.294 -3.548,-7.152 -3.654,-14.954 -0.289,-21.404 2.792,-5.352 7.735,-9.317 13.919,-11.165 4.05,-1.211 8.464,-1.462 12.896,-0.814 0.762,-6.525 4.047,-12.101 9.184,-15.47 1.605,-1.053 3.356,-1.866 5.203,-2.418 7.447,-2.226 15.831,0.037 22.416,5.583 2.218,-2.106 4.897,-3.726 7.961,-4.642 0.579,-0.172 1.172,-0.319 1.764,-0.438 9.304,-1.857 18.513,3.385 23.831,13.536 l 1.659,-6.091 7.834,-2.479 c 1.244,-0.394 29.804,-9.261 77.091,-10.017 -20.894,-5.666 -43.849,-10.075 -67.557,-11.533 l -16.836,-1.035 1.725,-9.814 c -4.536,-0.38 -11.242,-1.244 -17.835,-3.228 h -10e-4 c -3.034,-0.913 -5.827,-1.999 -8.345,-3.239 -4.609,4.178 -10.682,6.615 -17.184,6.615 -3.4,0 -6.722,-0.669 -9.874,-1.989 L -848.109,35.689 c -5.822,-2.435 -9.741,-7.527 -10.943,-13.282 l -141.897,-69.053 c -7.458,-3.122 -10.988,-11.729 -7.865,-19.188 l 25.474,-61.226 c 3.336,-7.452 8.743,-7.618 12.562,-7.618 4.182,0 8.012,1.141 10.756,4.678 1.487,-0.5 3.95,-1.093 5.549,-1.093 3.956,0 7.664,1.609 10.365,4.294 1.559,-0.556 3.219,-0.849 4.918,-0.849 4.276,0 8.254,1.871 10.989,4.95 1.649,-0.631 3.415,-0.961 5.225,-0.961 4.124,0 7.964,1.735 10.683,4.614 1.756,-0.726 3.649,-1.107 5.585,-1.107 4.279,0 8.223,1.842 10.947,4.89 1.785,-0.759 3.721,-1.157 5.724,-1.157 4.255,0 8.149,1.795 10.862,4.78 1.337,-0.397 2.739,-0.604 4.17,-0.604 4.077,0 7.819,1.643 10.51,4.402 1.713,-0.685 3.553,-1.045 5.428,-1.045 4.148,0 7.981,1.718 10.698,4.615 1.735,-0.71 3.61,-1.083 5.545,-1.083 4.517,0 8.626,2.007 11.354,5.351 1.516,-0.523 3.123,-0.795 4.766,-0.795 4.158,0 8.017,1.772 10.734,4.676 1.554,-0.551 3.204,-0.838 4.89,-0.838 4.232,0 8.174,1.817 10.91,4.855 1.57,-0.566 3.241,-0.864 4.939,-0.864 6.364,0 11.969,4.058 13.948,10.098 1.572,4.8 3.01,9.069 4.267,12.681 l 7.797,-3.743 c 2.478,-1.188 5.239,-1.816 7.987,-1.816 2.459,0 4.857,0.481 7.125,1.431 l 74.291,31.091 c 6.305,2.639 11.206,7.576 13.798,13.901 2.401,5.857 2.528,12.25 0.441,18.172 7.533,3.171 13.002,10.852 14.507,20.074 0.746,-1.021 1.505,-2.025 2.287,-3.003 l 6.051,-7.557 9.388,2.364 c 3.494,0.88 66.047,16.925 116.912,48.802 0.385,0.233 0.783,0.478 1.209,0.748 -14.444,-60.023 -38.152,-196.015 -38.152,-196.015 l 12.943,-4.785 c -25.116,-4.111 -75.283,-18 -96.659,-64.31 h 204.221 l -4.567,26.234 6.959,-1.714 22.693,136.448 c 57.5,-7.031 91.91,2.159 91.91,2.159 27.327,-88.321 27.918,-139.621 27.918,-139.621 l 7.145,3.533 -4.708,-27.039 h 204.221 c -25.723,55.728 -93.128,64.507 -108.41,65.794 l 15.161,6.449 c -8.973,65.418 -30.739,146.19 -39.732,169.518 43.118,-32.201 87.046,-52.043 89.74,-53.246 l 10.255,-4.58 2.905,3.38 c 1.024,-9.866 7.979,-18.053 17.469,-19.445 0.598,-0.087 1.205,-0.147 1.807,-0.179 3.195,-0.167 6.262,0.459 9.059,1.697 4.339,-7.435 11.476,-12.383 19.237,-12.788 1.926,-0.101 3.848,0.078 5.713,0.53 5.971,1.447 10.938,5.596 13.847,11.485 3.956,-2.098 8.199,-3.344 12.42,-3.565 6.445,-0.336 12.433,1.738 16.861,5.842 5.336,4.945 7.858,12.328 6.918,20.257 -0.243,2.059 -0.741,4.111 -1.422,6.127 8.635,0.699 15.802,5.001 19.633,11.987 5.162,9.413 2.818,20.949 -5.059,29.612 l 12.656,8.434 -8.694,13.046 61.005,40.652 15.656,0.922 17.991,22.367 z" /><rect
           style="opacity:0.231;fill:#ff0000;fill-opacity:1;stroke:#0000ff;stroke-width:0.072;stroke-linejoin:round;stroke-miterlimit:4;stroke-dasharray:none;stroke-opacity:1"
           id="rect4549"
           width="190.94725"
           height="251.3203"
           x="-1379.7423"
           y="-467.29111"
           transform="scale(1,-1)" /></g></g></g></svg>